<?xml version="1.0" encoding="UTF-8" standalone="no"?>
<!-- Created with Inkscape (http://www.inkscape.org/) -->

<svg
   width="19.314583mm"
   height="19.314583mm"
   viewBox="0 0 19.314582 19.314582"
   version="1.1"
   id="svg1"
   inkscape:version="1.4.3 (0d15f75, 2025-12-25)"
   sodipodi:docname="Helium.svg"
   xml:space="preserve"
   inkscape:export-filename="..\helium.png"
   inkscape:export-xdpi="96"
   inkscape:export-ydpi="96"
   xmlns:inkscape="http://www.inkscape.org/namespaces/inkscape"
   xmlns:sodipodi="http://sodipodi.sourceforge.net/DTD/sodipodi-0.dtd"
   xmlns:xlink="http://www.w3.org/1999/xlink"
   xmlns="http://www.w3.org/2000/svg"
   xmlns:svg="http://www.w3.org/2000/svg"><sodipodi:namedview
     id="namedview1"
     pagecolor="#ffffff"
     bordercolor="#000000"
     borderopacity="0.25"
     inkscape:showpageshadow="2"
     inkscape:pageopacity="0.0"
     inkscape:pagecheckerboard="0"
     inkscape:deskcolor="#d1d1d1"
     inkscape:document-units="mm"
     inkscape:zoom="2.1442755"
     inkscape:cx="36.375922"
     inkscape:cy="9.0939806"
     inkscape:window-width="1920"
     inkscape:window-height="1111"
     inkscape:window-x="-9"
     inkscape:window-y="-9"
     inkscape:window-maximized="1"
     inkscape:current-layer="layer1" /><defs
     id="defs1" /><g
     inkscape:label="Layer 1"
     inkscape:groupmode="layer"
     id="layer1"
     transform="translate(-64.163085,-64.163085)"><image
       width="19.314583"
       height="19.314583"
       preserveAspectRatio="none"
       xlink:href="deuterium.png"
       id="image1"
       x="64.163086"
       y="64.163086"
       style="display:none" /><circle
       style="fill:none;fill-opacity:0.84148;stroke:#87cdda;stroke-width:0.7;stroke-linecap:round;stroke-linejoin:round;stroke-opacity:1"
       id="path1"
       cx="73.86512"
       cy="73.856728"
       r="8.6681852" /><image
       width="19.314583"
       height="19.314583"
       preserveAspectRatio="none"
       xlink:href="deuterium.png"
       id="image1-5"
       x="87.274521"
       y="64.132095" /><g
       id="path2"
       style="opacity:1"
       transform="translate(-0.21812573,0.13087544)"><path
         style="baseline-shift:baseline;display:inline;overflow:visible;vector-effect:none;fill:#dbe6e8;stroke-linecap:round;stroke-linejoin:round;enable-background:accumulate;stop-color:#000000;stop-opacity:1"
         d="m 80.806078,66.998718 a 1.6359429,1.6359429 0 0 1 -1.635943,1.635943 1.6359429,1.6359429 0 0 1 -1.635942,-1.635943 1.6359429,1.6359429 0 0 1 1.635942,-1.635943 1.6359429,1.6359429 0 0 1 1.635943,1.635943 z"
         id="path3" /><path
         style="baseline-shift:baseline;display:inline;overflow:visible;vector-effect:none;fill:#606e79;fill-opacity:0.996078;stroke-linecap:round;stroke-linejoin:round;enable-background:accumulate;stop-color:#000000;stop-opacity:1"
         d="m 79.169922,65.013672 c -1.09266,0 -1.986328,0.891715 -1.986328,1.984375 0,1.09266 0.893668,1.986328 1.986328,1.986328 1.09266,0 1.986328,-0.893668 1.986328,-1.986328 0,-1.09266 -0.893668,-1.984375 -1.986328,-1.984375 z m 0,0.699219 c 0.714352,0 1.100187,0.459873 0.855242,1.130917 -0.191026,0.523327 -0.446364,0.796549 -0.901513,1.055753 -0.620749,0.35351 -1.238885,-0.187162 -1.238885,-0.901514 0,-0.714352 0.570804,-1.285156 1.285156,-1.285156 z"
         id="path4"
         sodipodi:nodetypes="ssssssssss" /><ellipse
         style="fill:#ffffff;fill-opacity:1;stroke:none;stroke-width:0.7;stroke-linecap:round;stroke-linejoin:round;stroke-opacity:0.996078"
         id="path5"
         cx="7.1648641"
         cy="102.71942"
         rx="0.39175719"
         ry="0.2699168"
         transform="rotate(-45.802637)" /></g><use
       x="0"
       y="0"
       xlink:href="#path2"
       id="use5"
       transform="translate(-10.775411,13.349295)" /><g
       id="g8"
       style="opacity:1"
       transform="matrix(1.3735497,0,0,1.3735497,-37.317367,-20.490451)"><path
         style="baseline-shift:baseline;display:inline;overflow:visible;vector-effect:none;fill:#dbe6e8;stroke-width:1.11649;stroke-linecap:round;stroke-linejoin:round;enable-background:accumulate;stop-color:#000000;stop-opacity:1"
         d="m 80.996643,66.998718 a 1.8265082,1.8265082 0 0 1 -1.826508,1.826508 1.8265082,1.8265082 0 0 1 -1.826507,-1.826508 1.8265082,1.8265082 0 0 1 1.826507,-1.826508 1.8265082,1.8265082 0 0 1 1.826508,1.826508 z"
         id="path7" /><path
         style="baseline-shift:baseline;display:inline;overflow:visible;vector-effect:none;fill:#606e79;fill-opacity:0.996078;stroke-linecap:round;stroke-linejoin:round;enable-background:accumulate;stop-color:#000000;stop-opacity:1"
         d="m 79.169922,65.013672 c -1.09266,0 -1.986328,0.891715 -1.986328,1.984375 0,1.09266 0.893668,1.986328 1.986328,1.986328 1.09266,0 1.986328,-0.893668 1.986328,-1.986328 0,-1.09266 -0.893668,-1.984375 -1.986328,-1.984375 z m 0,0.238686 c 0.703714,0.122821 1.084691,0.741817 0.902883,1.432646 -0.16801,0.638403 -0.76059,1.004025 -1.235002,1.166916 -0.675635,0.231982 -1.285648,-0.161903 -1.381809,-0.869753 -0.109834,-0.808496 0.816928,-1.886364 1.713928,-1.729809 z"
         id="path8"
         sodipodi:nodetypes="ssssssssss" /><ellipse
         style="fill:#ffffff;fill-opacity:1;stroke:none;stroke-width:0.7;stroke-linecap:round;stroke-linejoin:round;stroke-opacity:0.996078"
         id="ellipse8"
         cx="7.1914101"
         cy="102.4278"
         rx="0.39175719"
         ry="0.2699168"
         transform="rotate(-45.802637)" /></g><g
       id="g10"
       style="opacity:1"
       transform="matrix(1.3735497,0,0,1.3735497,-37.247544,-15.815296)"><path
         style="baseline-shift:baseline;display:inline;overflow:visible;vector-effect:none;fill:#6dd0de;fill-opacity:1;stroke-width:1.11649;stroke-linecap:round;stroke-linejoin:round;enable-background:accumulate;stop-color:#000000;stop-opacity:1"
         d="m 80.996643,66.998718 a 1.8265082,1.8265082 0 0 1 -1.826508,1.826508 1.8265082,1.8265082 0 0 1 -1.826507,-1.826508 1.8265082,1.8265082 0 0 1 1.826507,-1.826508 1.8265082,1.8265082 0 0 1 1.826508,1.826508 z"
         id="path9" /><path
         style="baseline-shift:baseline;display:inline;overflow:visible;vector-effect:none;fill:#2c687e;fill-opacity:1;stroke-linecap:round;stroke-linejoin:round;enable-background:accumulate;stop-color:#000000;stop-opacity:1"
         d="m 79.169922,65.013672 c -1.09266,0 -1.986328,0.891715 -1.986328,1.984375 0,1.09266 0.893668,1.986328 1.986328,1.986328 1.09266,0 1.986328,-0.893668 1.986328,-1.986328 0,-1.09266 -0.893668,-1.984375 -1.986328,-1.984375 z m 0,0.238686 c 0.703714,0.122821 1.084691,0.741817 0.902883,1.432646 -0.16801,0.638403 -0.76059,1.004025 -1.235002,1.166916 -0.675635,0.231982 -1.285648,-0.161903 -1.381809,-0.869753 -0.109834,-0.808496 0.816928,-1.886364 1.713928,-1.729809 z"
         id="path10"
         sodipodi:nodetypes="ssssssssss" /><ellipse
         style="fill:#ffffff;fill-opacity:1;stroke:none;stroke-width:0.7;stroke-linecap:round;stroke-linejoin:round;stroke-opacity:0.996078"
         id="ellipse10"
         cx="7.1914101"
         cy="102.4278"
         rx="0.39175719"
         ry="0.2699168"
         transform="rotate(-45.802637)" /></g><use
       x="0"
       y="0"
       xlink:href="#g10"
       id="use10"
       transform="translate(4.4744586,-4.5293112)" /><use
       x="0"
       y="0"
       xlink:href="#g8"
       id="use8"
       transform="translate(4.4470858,4.5305939)" /></g></svg>
